<mxfile host="app.diagrams.net" modified="2022-07-05T08:25:15.898Z" agent="5.0 (Macintosh; Intel Mac OS X 10_15_7) AppleWebKit/537.36 (KHTML, like Gecko) Chrome/103.0.0.0 Safari/537.36" etag="Y2bG6P3-SEvekLXf7GZ8" version="20.0.1" type="github">
  <diagram id="zPbcd4ILjrnKKXGJ8WDN" name="第 1 页">
    <mxGraphModel dx="2275" dy="1293" grid="0" gridSize="10" guides="1" tooltips="1" connect="1" arrows="1" fold="1" page="0" pageScale="1" pageWidth="827" pageHeight="1169" math="0" shadow="0">
      <root>
        <mxCell id="0" />
        <mxCell id="1" parent="0" />
        <mxCell id="5wIY9Y5YmBzmfZaAbEdl-7" style="edgeStyle=orthogonalEdgeStyle;rounded=0;orthogonalLoop=1;jettySize=auto;html=1;entryX=-0.031;entryY=0.611;entryDx=0;entryDy=0;entryPerimeter=0;" edge="1" parent="1" source="5wIY9Y5YmBzmfZaAbEdl-1" target="5wIY9Y5YmBzmfZaAbEdl-4">
          <mxGeometry relative="1" as="geometry" />
        </mxCell>
        <mxCell id="5wIY9Y5YmBzmfZaAbEdl-1" value="Service接口" style="rounded=0;whiteSpace=wrap;html=1;" vertex="1" parent="1">
          <mxGeometry x="75" y="210" width="160" height="90" as="geometry" />
        </mxCell>
        <mxCell id="5wIY9Y5YmBzmfZaAbEdl-2" value="Producer （接口服务提供者）" style="text;html=1;align=center;verticalAlign=middle;resizable=0;points=[];autosize=1;strokeColor=none;fillColor=none;" vertex="1" parent="1">
          <mxGeometry x="70" y="180" width="180" height="20" as="geometry" />
        </mxCell>
        <mxCell id="5wIY9Y5YmBzmfZaAbEdl-3" value="Servicelimp实现类" style="rounded=0;whiteSpace=wrap;html=1;" vertex="1" parent="1">
          <mxGeometry x="100" y="270" width="110" height="30" as="geometry" />
        </mxCell>
        <mxCell id="5wIY9Y5YmBzmfZaAbEdl-4" value="Service接口" style="rounded=0;whiteSpace=wrap;html=1;" vertex="1" parent="1">
          <mxGeometry x="550" y="200" width="160" height="90" as="geometry" />
        </mxCell>
        <mxCell id="5wIY9Y5YmBzmfZaAbEdl-5" value="Consumer（接口消费者）" style="text;html=1;align=center;verticalAlign=middle;resizable=0;points=[];autosize=1;strokeColor=none;fillColor=none;" vertex="1" parent="1">
          <mxGeometry x="560" y="170" width="150" height="20" as="geometry" />
        </mxCell>
        <mxCell id="5wIY9Y5YmBzmfZaAbEdl-6" value="Servicelimp实现类" style="rounded=0;whiteSpace=wrap;html=1;" vertex="1" parent="1">
          <mxGeometry x="575" y="260" width="110" height="30" as="geometry" />
        </mxCell>
        <mxCell id="5wIY9Y5YmBzmfZaAbEdl-8" value="网络" style="text;html=1;align=center;verticalAlign=middle;resizable=0;points=[];autosize=1;strokeColor=none;fillColor=none;" vertex="1" parent="1">
          <mxGeometry x="340" y="230" width="40" height="20" as="geometry" />
        </mxCell>
        <mxCell id="5wIY9Y5YmBzmfZaAbEdl-9" value="" style="rounded=0;whiteSpace=wrap;html=1;" vertex="1" parent="1">
          <mxGeometry x="340" y="-30" width="160" height="90" as="geometry" />
        </mxCell>
        <mxCell id="5wIY9Y5YmBzmfZaAbEdl-10" value="网络服务提供者(应用启动)" style="text;html=1;align=center;verticalAlign=middle;resizable=0;points=[];autosize=1;strokeColor=none;fillColor=none;" vertex="1" parent="1">
          <mxGeometry x="320" y="-60" width="160" height="20" as="geometry" />
        </mxCell>
        <mxCell id="5wIY9Y5YmBzmfZaAbEdl-11" value="" style="rounded=0;whiteSpace=wrap;html=1;" vertex="1" parent="1">
          <mxGeometry x="360" width="120" height="60" as="geometry" />
        </mxCell>
        <mxCell id="5wIY9Y5YmBzmfZaAbEdl-12" value="Tomcat/Jetty/Netty" style="text;html=1;strokeColor=none;fillColor=none;align=center;verticalAlign=middle;whiteSpace=wrap;rounded=0;" vertex="1" parent="1">
          <mxGeometry x="370" y="-30" width="60" height="30" as="geometry" />
        </mxCell>
        <mxCell id="5wIY9Y5YmBzmfZaAbEdl-13" value="获取服务配置参数：host、端口" style="text;html=1;strokeColor=none;fillColor=none;align=center;verticalAlign=middle;whiteSpace=wrap;rounded=0;" vertex="1" parent="1">
          <mxGeometry x="375" y="15" width="90" height="30" as="geometry" />
        </mxCell>
        <mxCell id="5wIY9Y5YmBzmfZaAbEdl-14" value="服务注册中心" style="rounded=0;whiteSpace=wrap;html=1;" vertex="1" parent="1">
          <mxGeometry x="340" y="710" width="120" height="60" as="geometry" />
        </mxCell>
        <mxCell id="5wIY9Y5YmBzmfZaAbEdl-20" style="edgeStyle=orthogonalEdgeStyle;rounded=0;orthogonalLoop=1;jettySize=auto;html=1;entryX=0;entryY=0.5;entryDx=0;entryDy=0;fontSize=16;" edge="1" parent="1" source="5wIY9Y5YmBzmfZaAbEdl-16" target="5wIY9Y5YmBzmfZaAbEdl-14">
          <mxGeometry relative="1" as="geometry">
            <Array as="points">
              <mxPoint x="160" y="740" />
            </Array>
          </mxGeometry>
        </mxCell>
        <mxCell id="5wIY9Y5YmBzmfZaAbEdl-16" value="服务提供者" style="rounded=0;whiteSpace=wrap;html=1;" vertex="1" parent="1">
          <mxGeometry x="115" y="980" width="120" height="60" as="geometry" />
        </mxCell>
        <mxCell id="5wIY9Y5YmBzmfZaAbEdl-18" style="edgeStyle=orthogonalEdgeStyle;rounded=0;orthogonalLoop=1;jettySize=auto;html=1;entryX=1;entryY=0.5;entryDx=0;entryDy=0;" edge="1" parent="1" source="5wIY9Y5YmBzmfZaAbEdl-17" target="5wIY9Y5YmBzmfZaAbEdl-14">
          <mxGeometry relative="1" as="geometry">
            <Array as="points">
              <mxPoint x="690" y="740" />
            </Array>
          </mxGeometry>
        </mxCell>
        <mxCell id="5wIY9Y5YmBzmfZaAbEdl-23" style="edgeStyle=orthogonalEdgeStyle;rounded=0;orthogonalLoop=1;jettySize=auto;html=1;fontSize=16;" edge="1" parent="1" source="5wIY9Y5YmBzmfZaAbEdl-17">
          <mxGeometry relative="1" as="geometry">
            <mxPoint x="240" y="1000" as="targetPoint" />
          </mxGeometry>
        </mxCell>
        <mxCell id="5wIY9Y5YmBzmfZaAbEdl-17" value="服务消费者" style="rounded=0;whiteSpace=wrap;html=1;" vertex="1" parent="1">
          <mxGeometry x="630" y="970" width="120" height="60" as="geometry" />
        </mxCell>
        <mxCell id="5wIY9Y5YmBzmfZaAbEdl-19" value="&lt;font style=&quot;font-size: 16px;&quot;&gt;4、发送请求获取服务列表再通过客户端负载&lt;span style=&quot;caret-color: rgb(40, 44, 52); color: rgb(40, 44, 52); font-family: -apple-system, BlinkMacSystemFont, &amp;quot;Helvetica Neue&amp;quot;, Helvetica, &amp;quot;PingFang SC&amp;quot;, &amp;quot;Microsoft YaHei&amp;quot;, sans-serif; orphans: 4; text-align: justify; word-spacing: 0.8px; text-size-adjust: auto; background-color: rgb(254, 254, 254);&quot;&gt;Ribbon轮询我们的服务列表&lt;br&gt;只读清单（30s返回一次）&lt;br&gt;&lt;/span&gt;&lt;/font&gt;" style="text;html=1;align=center;verticalAlign=middle;resizable=0;points=[];autosize=1;strokeColor=none;fillColor=none;" vertex="1" parent="1">
          <mxGeometry x="355" y="860" width="520" height="40" as="geometry" />
        </mxCell>
        <mxCell id="5wIY9Y5YmBzmfZaAbEdl-21" value="&lt;span style=&quot;box-sizing: border-box; caret-color: rgb(40, 44, 52); color: rgb(40, 44, 52); font-family: -apple-system, BlinkMacSystemFont, &amp;quot;Helvetica Neue&amp;quot;, Helvetica, &amp;quot;PingFang SC&amp;quot;, &amp;quot;Microsoft YaHei&amp;quot;, sans-serif; orphans: 4; text-align: justify; word-spacing: 0.8px; text-size-adjust: auto;&quot; class=&quot;md-plain md-expand&quot;&gt;1、发送请求Eureka登记注册自己提供的&lt;/span&gt;&lt;span style=&quot;box-sizing: border-box; caret-color: rgb(40, 44, 52); color: rgb(40, 44, 52); font-family: -apple-system, BlinkMacSystemFont, &amp;quot;Helvetica Neue&amp;quot;, Helvetica, &amp;quot;PingFang SC&amp;quot;, &amp;quot;Microsoft YaHei&amp;quot;, sans-serif; orphans: 4; text-align: justify; word-spacing: 0.8px; text-size-adjust: auto;&quot; class=&quot;md-pair-s&quot;&gt;&lt;strong style=&quot;box-sizing: border-box; background-color: inherit; color: rgb(181, 48, 46);&quot;&gt;元数据&lt;/strong&gt;&lt;/span&gt;&lt;span style=&quot;box-sizing: border-box; caret-color: rgb(40, 44, 52); color: rgb(40, 44, 52); font-family: -apple-system, BlinkMacSystemFont, &amp;quot;Helvetica Neue&amp;quot;, Helvetica, &amp;quot;PingFang SC&amp;quot;, &amp;quot;Microsoft YaHei&amp;quot;, sans-serif; orphans: 4; text-align: justify; word-spacing: 0.8px; text-size-adjust: auto;&quot; class=&quot;md-plain&quot;&gt;，包括服务的&lt;/span&gt;&lt;span style=&quot;box-sizing: border-box; caret-color: rgb(40, 44, 52); color: rgb(40, 44, 52); font-family: -apple-system, BlinkMacSystemFont, &amp;quot;Helvetica Neue&amp;quot;, Helvetica, &amp;quot;PingFang SC&amp;quot;, &amp;quot;Microsoft YaHei&amp;quot;, sans-serif; orphans: 4; text-align: justify; word-spacing: 0.8px; text-size-adjust: auto;&quot; class=&quot;md-pair-s&quot;&gt;&lt;strong style=&quot;box-sizing: border-box; background-color: inherit; color: rgb(181, 48, 46);&quot;&gt;ip地址，端口号，版本号、通信协议&lt;/strong&gt;&lt;/span&gt;&lt;span style=&quot;box-sizing: border-box; caret-color: rgb(40, 44, 52); color: rgb(40, 44, 52); font-family: -apple-system, BlinkMacSystemFont, &amp;quot;Helvetica Neue&amp;quot;, Helvetica, &amp;quot;PingFang SC&amp;quot;, &amp;quot;Microsoft YaHei&amp;quot;, sans-serif; orphans: 4; text-align: justify; word-spacing: 0.8px; text-size-adjust: auto;&quot; class=&quot;md-plain md-expand&quot;&gt;等&lt;/span&gt;" style="text;html=1;align=center;verticalAlign=middle;resizable=0;points=[];autosize=1;strokeColor=none;fillColor=none;fontSize=16;" vertex="1" parent="1">
          <mxGeometry x="-110" y="790" width="710" height="30" as="geometry" />
        </mxCell>
        <mxCell id="5wIY9Y5YmBzmfZaAbEdl-24" value="消费对应的服务提供者--服务调用" style="text;html=1;align=center;verticalAlign=middle;resizable=0;points=[];autosize=1;strokeColor=none;fillColor=none;fontSize=16;" vertex="1" parent="1">
          <mxGeometry x="305" y="970" width="250" height="20" as="geometry" />
        </mxCell>
        <mxCell id="5wIY9Y5YmBzmfZaAbEdl-25" value="2、&lt;span style=&quot;box-sizing: border-box; caret-color: rgb(40, 44, 52); color: rgb(40, 44, 52); font-family: -apple-system, BlinkMacSystemFont, &amp;quot;Helvetica Neue&amp;quot;, Helvetica, &amp;quot;PingFang SC&amp;quot;, &amp;quot;Microsoft YaHei&amp;quot;, sans-serif; orphans: 4; text-align: justify; word-spacing: 0.8px; text-size-adjust: auto;&quot; class=&quot;md-plain md-expand&quot;&gt;服务维护在一个&lt;/span&gt;&lt;span style=&quot;box-sizing: border-box; caret-color: rgb(40, 44, 52); color: rgb(40, 44, 52); font-family: -apple-system, BlinkMacSystemFont, &amp;quot;Helvetica Neue&amp;quot;, Helvetica, &amp;quot;PingFang SC&amp;quot;, &amp;quot;Microsoft YaHei&amp;quot;, sans-serif; orphans: 4; text-align: justify; word-spacing: 0.8px; text-size-adjust: auto;&quot; class=&quot;md-pair-s&quot;&gt;&lt;strong style=&quot;box-sizing: border-box; background-color: inherit; color: rgb(181, 48, 46);&quot;&gt;服务清单&lt;/strong&gt;&lt;/span&gt;&lt;span style=&quot;box-sizing: border-box; caret-color: rgb(40, 44, 52); color: rgb(40, 44, 52); font-family: -apple-system, BlinkMacSystemFont, &amp;quot;Helvetica Neue&amp;quot;, Helvetica, &amp;quot;PingFang SC&amp;quot;, &amp;quot;Microsoft YaHei&amp;quot;, sans-serif; orphans: 4; text-align: justify; word-spacing: 0.8px; text-size-adjust: auto;&quot; class=&quot;md-plain&quot;&gt;中（双层Map、第一层&lt;/span&gt;&lt;span style=&quot;box-sizing: border-box; caret-color: rgb(40, 44, 52); color: rgb(40, 44, 52); font-family: -apple-system, BlinkMacSystemFont, &amp;quot;Helvetica Neue&amp;quot;, Helvetica, &amp;quot;PingFang SC&amp;quot;, &amp;quot;Microsoft YaHei&amp;quot;, sans-serif; orphans: 4; text-align: justify; word-spacing: 0.8px; text-size-adjust: auto;&quot; class=&quot;md-pair-s&quot;&gt;&lt;strong style=&quot;box-sizing: border-box; background-color: inherit; color: rgb(181, 48, 46);&quot;&gt;key是服务名&lt;/strong&gt;&lt;/span&gt;&lt;span style=&quot;box-sizing: border-box; caret-color: rgb(40, 44, 52); color: rgb(40, 44, 52); font-family: -apple-system, BlinkMacSystemFont, &amp;quot;Helvetica Neue&amp;quot;, Helvetica, &amp;quot;PingFang SC&amp;quot;, &amp;quot;Microsoft YaHei&amp;quot;, sans-serif; orphans: 4; text-align: justify; word-spacing: 0.8px; text-size-adjust: auto;&quot; class=&quot;md-plain md-expand&quot;&gt;、第二层key是实例名，value是服务地址加端口号）&lt;/span&gt;" style="text;html=1;align=center;verticalAlign=middle;resizable=0;points=[];autosize=1;strokeColor=none;fillColor=none;fontSize=16;" vertex="1" parent="1">
          <mxGeometry x="30" y="620" width="830" height="30" as="geometry" />
        </mxCell>
        <mxCell id="5wIY9Y5YmBzmfZaAbEdl-26" value="&amp;nbsp;3、&lt;span style=&quot;box-sizing: border-box; caret-color: rgb(40, 44, 52); color: rgb(40, 44, 52); font-family: -apple-system, BlinkMacSystemFont, &amp;quot;Helvetica Neue&amp;quot;, Helvetica, &amp;quot;PingFang SC&amp;quot;, &amp;quot;Microsoft YaHei&amp;quot;, sans-serif; orphans: 4; text-align: justify; word-spacing: 0.8px; text-size-adjust: auto;&quot; class=&quot;md-plain md-expand&quot;&gt;同时&lt;/span&gt;&lt;span style=&quot;box-sizing: border-box; caret-color: rgb(40, 44, 52); color: rgb(40, 44, 52); font-family: -apple-system, BlinkMacSystemFont, &amp;quot;Helvetica Neue&amp;quot;, Helvetica, &amp;quot;PingFang SC&amp;quot;, &amp;quot;Microsoft YaHei&amp;quot;, sans-serif; orphans: 4; text-align: justify; word-spacing: 0.8px; text-size-adjust: auto;&quot; class=&quot;md-pair-s&quot;&gt;&lt;strong style=&quot;box-sizing: border-box; background-color: inherit; color: rgb(181, 48, 46);&quot;&gt;对服务维护心跳&lt;/strong&gt;&lt;/span&gt;&lt;span style=&quot;box-sizing: border-box; caret-color: rgb(40, 44, 52); color: rgb(40, 44, 52); font-family: -apple-system, BlinkMacSystemFont, &amp;quot;Helvetica Neue&amp;quot;, Helvetica, &amp;quot;PingFang SC&amp;quot;, &amp;quot;Microsoft YaHei&amp;quot;, sans-serif; orphans: 4; text-align: justify; word-spacing: 0.8px; text-size-adjust: auto;&quot; class=&quot;md-plain md-expand&quot;&gt;，剔除不可用的服务(3次剔除)---&lt;/span&gt;&lt;span style=&quot;box-sizing: border-box; caret-color: rgb(40, 44, 52); font-family: -apple-system, BlinkMacSystemFont, &amp;quot;Helvetica Neue&amp;quot;, Helvetica, &amp;quot;PingFang SC&amp;quot;, &amp;quot;Microsoft YaHei&amp;quot;, sans-serif; orphans: 4; text-align: justify; word-spacing: 0.8px; text-size-adjust: auto;&quot; class=&quot;md-plain md-expand&quot;&gt;&lt;font color=&quot;#ff3333&quot;&gt;服务续约&lt;/font&gt;&lt;/span&gt;&lt;span style=&quot;box-sizing: border-box; caret-color: rgb(40, 44, 52); color: rgb(40, 44, 52); font-family: -apple-system, BlinkMacSystemFont, &amp;quot;Helvetica Neue&amp;quot;, Helvetica, &amp;quot;PingFang SC&amp;quot;, &amp;quot;Microsoft YaHei&amp;quot;, sans-serif; orphans: 4; text-align: justify; word-spacing: 0.8px; text-size-adjust: auto;&quot; class=&quot;md-plain md-expand&quot;&gt;（心跳默认30s）&lt;br&gt;&lt;br&gt;&lt;/span&gt;" style="text;html=1;align=center;verticalAlign=middle;resizable=0;points=[];autosize=1;strokeColor=none;fillColor=none;fontSize=16;" vertex="1" parent="1">
          <mxGeometry x="20" y="655" width="610" height="40" as="geometry" />
        </mxCell>
        <mxCell id="5wIY9Y5YmBzmfZaAbEdl-27" value="&lt;font color=&quot;#ff3333&quot;&gt;服务获取&lt;/font&gt;" style="text;html=1;align=center;verticalAlign=middle;resizable=0;points=[];autosize=1;strokeColor=none;fillColor=none;fontSize=16;" vertex="1" parent="1">
          <mxGeometry x="595" y="830" width="80" height="20" as="geometry" />
        </mxCell>
        <mxCell id="5wIY9Y5YmBzmfZaAbEdl-28" value="5、如果服务要下线是发送请求给注册中心" style="text;html=1;align=center;verticalAlign=middle;resizable=0;points=[];autosize=1;strokeColor=none;fillColor=none;fontSize=16;" vertex="1" parent="1">
          <mxGeometry x="355" y="920" width="310" height="20" as="geometry" />
        </mxCell>
        <mxCell id="5wIY9Y5YmBzmfZaAbEdl-30" value="6、接受到请求时将服务状态置为down并发送下线时间---&lt;font color=&quot;#ff3333&quot;&gt;服务下线&lt;/font&gt;" style="text;html=1;align=center;verticalAlign=middle;resizable=0;points=[];autosize=1;strokeColor=none;fillColor=none;fontSize=16;" vertex="1" parent="1">
          <mxGeometry x="30" y="690" width="480" height="20" as="geometry" />
        </mxCell>
        <mxCell id="5wIY9Y5YmBzmfZaAbEdl-31" value="7、如果服务挂掉--&lt;font color=&quot;#ff3333&quot;&gt;失效剔除&lt;/font&gt;，会创建一个定时任务默认是60s一次，将我们清单超时，以及没有续约的服务剔除调" style="text;html=1;align=center;verticalAlign=middle;resizable=0;points=[];autosize=1;strokeColor=none;fillColor=none;fontSize=16;" vertex="1" parent="1">
          <mxGeometry x="20" y="1090" width="810" height="20" as="geometry" />
        </mxCell>
        <mxCell id="5wIY9Y5YmBzmfZaAbEdl-32" value="&lt;div style=&quot;text-align: left;&quot;&gt;&lt;span style=&quot;background-color: initial;&quot;&gt;8、如果是网络不稳定，保持不了心跳机制，不可能把服务剔除----采取自我保护机制----&lt;font color=&quot;#ff3333&quot;&gt;自我保护&lt;/font&gt;，&lt;/span&gt;&lt;/div&gt;在服务运行期间会统计我们的心跳，当我们心跳的失败机率在15分低于85%(阈值)--进入保护模式（保护清单列表不会下线实例不可被剔除）发出警告，&lt;br&gt;&lt;div style=&quot;text-align: left;&quot;&gt;&lt;span style=&quot;background-color: initial;&quot;&gt;当高于85%时退出自我保护机制&lt;/span&gt;&lt;/div&gt;" style="text;html=1;align=center;verticalAlign=middle;resizable=0;points=[];autosize=1;strokeColor=none;fillColor=none;fontSize=16;" vertex="1" parent="1">
          <mxGeometry x="20" y="1120" width="1080" height="60" as="geometry" />
        </mxCell>
        <mxCell id="5wIY9Y5YmBzmfZaAbEdl-33" value="9、如果在自我保护期间服务挂了，但是服务中心已经将我们的服务保护了，那么服务消费拿到了不存在的服务实例" style="text;html=1;align=center;verticalAlign=middle;resizable=0;points=[];autosize=1;strokeColor=none;fillColor=none;fontSize=16;" vertex="1" parent="1">
          <mxGeometry x="20" y="1210" width="820" height="20" as="geometry" />
        </mxCell>
        <mxCell id="5wIY9Y5YmBzmfZaAbEdl-36" value="&lt;span style=&quot;&quot;&gt;实例数* 每分钟心跳数* 阈值，心跳时间可以修改但是源代码预期值还是30S&lt;/span&gt;" style="text;html=1;align=center;verticalAlign=middle;resizable=0;points=[];autosize=1;strokeColor=none;fillColor=none;fontSize=16;" vertex="1" parent="1">
          <mxGeometry x="34" y="1281" width="550" height="20" as="geometry" />
        </mxCell>
        <mxCell id="5wIY9Y5YmBzmfZaAbEdl-37" value="服务注册中心2" style="rounded=0;whiteSpace=wrap;html=1;" vertex="1" parent="1">
          <mxGeometry x="740" y="690" width="120" height="60" as="geometry" />
        </mxCell>
        <mxCell id="5wIY9Y5YmBzmfZaAbEdl-39" value="" style="endArrow=classic;html=1;rounded=0;fontSize=16;exitX=1;exitY=0.25;exitDx=0;exitDy=0;" edge="1" parent="1" source="5wIY9Y5YmBzmfZaAbEdl-14" target="5wIY9Y5YmBzmfZaAbEdl-37">
          <mxGeometry width="50" height="50" relative="1" as="geometry">
            <mxPoint x="590" y="750" as="sourcePoint" />
            <mxPoint x="640" y="700" as="targetPoint" />
          </mxGeometry>
        </mxCell>
        <mxCell id="5wIY9Y5YmBzmfZaAbEdl-40" value="高可用：服务同步" style="text;html=1;align=center;verticalAlign=middle;resizable=0;points=[];autosize=1;strokeColor=none;fillColor=none;fontSize=16;" vertex="1" parent="1">
          <mxGeometry x="575" y="700" width="140" height="20" as="geometry" />
        </mxCell>
        <mxCell id="5wIY9Y5YmBzmfZaAbEdl-41" value="&lt;font color=&quot;#ff3333&quot;&gt;服务注册&lt;/font&gt;" style="text;html=1;align=center;verticalAlign=middle;resizable=0;points=[];autosize=1;strokeColor=none;fillColor=none;fontSize=16;" vertex="1" parent="1">
          <mxGeometry x="115" y="770" width="80" height="20" as="geometry" />
        </mxCell>
      </root>
    </mxGraphModel>
  </diagram>
</mxfile>
